<?xml version="1.0" encoding="utf-8"?>
<!-- Generator: Adobe Illustrator 19.2.1, SVG Export Plug-In . SVG Version: 6.00 Build 0)  -->
<svg version="1.1" id="Слой_1" xmlns="http://www.w3.org/2000/svg" xmlns:xlink="http://www.w3.org/1999/xlink" x="0px" y="0px"
	 viewBox="0 0 595.3 595.3" style="enable-background:new 0 0 595.3 595.3;" xml:space="preserve">
<g>
	<path d="M1,24.7C2.5,18.6,4.9,13,9.6,8.5c5.6-5.4,12.3-8.4,20.1-8.4C58.5,0,87.4,0,116.3,0.1c13.4,0,24.6,10,27.7,23.4
		c4.7,20.9,9.8,41.7,14.7,62.6c0.4,1.8,1.2,2.6,3.1,2.3c0.6-0.1,1.2,0,1.8,0c131.7,0,263.5,0,395.2,0c4.5,0,9.2-0.4,13.5,0.6
		c16.3,3.7,25.1,18.5,21.7,35c-4,19.7-7.7,39.5-11.4,59.3c-5.4,28.3-10.8,56.7-16,85.1c-1.1,5.7-1.7,11.5-5.3,16.4
		c-6.1,8.4-14.4,12.7-24.7,12.7c-32.2,0-64.4-0.1-96.6-0.1c-75.5,0-151,0-226.5,0c-1.3,0-2.6,0-4.4,0c1.2,5.3,2.3,10.3,3.5,15.3
		c4.3,18.2,8.8,36.4,13,54.7c0.6,2.6,1.6,3.3,4.2,3.3c97.9-0.1,195.9-0.1,293.8,0c13.4,0,24.1,7.1,28.5,18.9
		c6.7,17.9-6.6,37.5-25.9,38.2c-1.3,0-2.6,0-3.9,0c-105.4,0-210.8-0.1-316.2,0.2c-12.7,0-27.3-7.1-31.1-24.6
		c-5.7-26.4-12.3-52.7-18.5-79c-14.8-62.5-29.7-124.9-44.5-187.4c-6.3-26.5-12.6-53-19-79.8c-1.2,0-2.3,0-3.5,0c-19,0-38,0-56.9,0
		c-16.6,0-27-8.1-31.1-24.2c0-0.2-0.2-0.3-0.4-0.5C1,29.9,1,27.3,1,24.7z M173,145.4c0.1,0.9,0.1,1.4,0.2,1.8
		c7.1,30,14.3,60,21.4,90.1c0.6,2.7,1.8,3.2,4.2,3.2c103.8-0.1,207.6,0,311.4,0c1.1,0,2.2,0,3.5,0c6-31.8,11.9-63.3,17.9-95
		C411.7,145.4,292.5,145.4,173,145.4z"/>
	<path d="M254.2,595.3c-5-1-10.1-1.7-15-3.1c-27.9-7.6-49.3-32.9-52.3-61.5c-4-38.7,21.2-72.6,59.4-79.9c38.8-7.5,77.7,19,84.9,57.7
		c7.4,39.9-17.8,77.2-57.8,85.3c-2.9,0.6-5.9,1-8.9,1.4C261.1,595.3,257.7,595.3,254.2,595.3z M259.4,538.1c8.7,0,15.9-7,15.9-15.6
		c0-8.5-7.2-15.7-15.8-15.7c-8.5,0-15.6,7-15.6,15.5C243.8,531.1,250.7,538.1,259.4,538.1z"/>
	<path d="M472.9,595.3c-4.9-1-9.9-1.6-14.7-2.9c-27.8-7.5-48.7-31.4-52.6-59.9c-5.5-40.5,22.7-76.9,63.5-82.3
		c38-5,74.6,22,80.8,59.6c6.5,39.5-18.2,75.6-57.5,83.9c-3,0.6-6.1,1.1-9.2,1.6C479.8,595.3,476.4,595.3,472.9,595.3z M493.6,522.4
		c0-8.6-7.2-15.7-15.8-15.6c-8.5,0.1-15.6,7.2-15.7,15.6c-0.1,8.5,7.1,15.7,15.7,15.7C486.7,538.1,493.6,531.2,493.6,522.4z"/>
</g>
</svg>
