<?xml version="1.0" encoding="utf-8"?>
<!-- Generator: Adobe Illustrator 19.2.1, SVG Export Plug-In . SVG Version: 6.00 Build 0)  -->
<svg version="1.1" id="Слой_1" xmlns="http://www.w3.org/2000/svg" xmlns:xlink="http://www.w3.org/1999/xlink" x="0px" y="0px"
	 viewBox="0 0 618 595.3" style="enable-background:new 0 0 618 595.3;" xml:space="preserve">
<style type="text/css">
	.st0{fill:#010202;}
</style>
<path class="st0" d="M195.8,374.6c-13.4-21.1-23.6-42.4-29.8-65.4c-22.5-84-7.4-160.6,47.7-227.7C251.9,35,301.9,7.6,361.8,1.4
	C437-6.4,500.9,18.7,552.7,74c34.2,36.5,54.8,80.1,61.4,129.6c10.2,75.9-9,143.7-60.4,201c-38.3,42.7-86.2,67.7-143,73.8
	c-64,6.9-120.8-11.7-170.3-52.9c-1.2-1-2.3-2-3.5-2.9c-0.3-0.2-0.7-0.3-1.6-0.6c-8,7.2-16.3,14.6-24.5,22
	c-54.2,48.9-108.4,97.8-162.6,146.6c-7.4,6.7-13.1,6.3-19.7-1.1c-7.7-8.6-15.4-17.1-22.9-25.8c-6.1-7.1-5.8-12.9,1-19
	C40.6,513.8,74.8,483,109,452.2c27.6-24.9,55.2-49.8,82.8-74.7C192.9,376.6,194.2,375.7,195.8,374.6z M200.1,239.6
	c1,10.5,1.3,21.1,3.1,31.5c7.5,43.5,24.9,82,57.5,112.6c32.3,30.3,70.3,48.5,114.5,50.8c61.8,3.3,113.2-19.9,152-68
	c43.9-54.4,55.7-116.7,36.6-183.9c-22-77.6-89.1-134.1-170-137.7c-20.2-0.9-40,1.7-59.3,7.6C255.3,77,200.8,153.2,200.1,239.6z"/>
</svg>
